PathFileType	4	(X/Y/Z)	/Users/itak/Documents/Research/Walk-IL/dataset/trc/00355_00011.trc
DataRate	CameraRate	NumFrames	NumMarkers	Units	OrigDataRate	OrigDataStartFrame	OrigNumFrames
100.000000	100.000000	4	56	mm	100.000000	466	746
Frame#	Time	RPSI			LPSI			STRN			T10			C7			CLAV			RBAK			LBAK			LSHO			LUPA			LAEL			LAOL			LWTS			LWPS			LFRA			LHPS			LHTS			RSHO			RUPA			RAEL			RAOL			RWTS			RWPS			RFRA			RIFD			RHTS			RHPS			RBHD			LFHD			RFHD			LBHD			LHIP			RHIP			RASI			LASI			LKNE			LTHI			LANK			LTIP			LTOE			LMT1			LMT5			LHEE			RKNE			RANK			RTIP			RTOE			RMT1			RMT5			RHEE			L3			RTHI			LIFD			*53			*54			*55			
		X1	Y1	Z1	X2	Y2	Z2	X3	Y3	Z3	X4	Y4	Z4	X5	Y5	Z5	X6	Y6	Z6	X7	Y7	Z7	X8	Y8	Z8	X9	Y9	Z9	X10	Y10	Z10	X11	Y11	Z11	X12	Y12	Z12	X13	Y13	Z13	X14	Y14	Z14	X15	Y15	Z15	X16	Y16	Z16	X17	Y17	Z17	X18	Y18	Z18	X19	Y19	Z19	X20	Y20	Z20	X21	Y21	Z21	X22	Y22	Z22	X23	Y23	Z23	X24	Y24	Z24	X25	Y25	Z25	X26	Y26	Z26	X27	Y27	Z27	X28	Y28	Z28	X29	Y29	Z29	X30	Y30	Z30	X31	Y31	Z31	X32	Y32	Z32	X33	Y33	Z33	X34	Y34	Z34	X35	Y35	Z35	X36	Y36	Z36	X37	Y37	Z37	X38	Y38	Z38	X39	Y39	Z39	X40	Y40	Z40	X41	Y41	Z41	X42	Y42	Z42	X43	Y43	Z43	X44	Y44	Z44	X45	Y45	Z45	X46	Y46	Z46	X47	Y47	Z47	X48	Y48	Z48	X49	Y49	Z49	X50	Y50	Z50	X51	Y51	Z51	X52	Y52	Z52	X53	Y53	Z53	X54	Y54	Z54	X55	Y55	Z55	X56	Y56	Z56	

467	4.66	378.4173889160156	930.3167724609375	-268.3002319335938	508.1538391113281	931.7734375	-327.2610778808594	553.4266357421875	1171.169189453125	-96.16600799560547	410.0308837890625	1114.47216796875	-299.6534729003906	452.1748352050781	1358.924438476562	-258.9990844726562	534.3187866210938	1297.953369140625	-130.1990203857422	362.2986450195312	1223.774536132812	-267.2285461425781	527.1921997070312	1323.17236328125	-326.4923706054688	622.113525390625	1334.948486328125	-290.4191284179688	654.916748046875	1221.521118164062	-358.9435424804688	653.4080810546875	1018.773132324219	-388.5285034179688	569.161376953125	1017.255187988281	-402.2670593261719	652.932373046875	760.2659912109375	-333.190185546875	672.8150024414062	760.7177734375	-400.1117858886719	659.1690673828125	915.1143188476562	-402.5889587402344	656.6845092773438	694.337158203125	-414.2924194335938	660.2059326171875	681.25732421875	-350.489501953125	349.2583923339844	1346.952880859375	-122.7820892333984	287.9979248046875	1283.77685546875	-95.32505035400391	266.4813842773438	1019.658264160156	-39.05287551879883	292.6773681640625	1001.348693847656	-127.7529067993164	437.961669921875	856.0288696289062	40.2186164855957	378.1942443847656	827.2789306640625	78.33226776123047	290.7669067382812	963.4844970703125	-3.806079149246216	501.9691772460938	705.2196044921875	96.58273315429688	484.701171875	777.5889892578125	94.64186096191406	419.6749877929688	757.4174194335938	106.7888793945312	427.4700927734375	1566.944702148438	-177.9511413574219	603.6297607421875	1557.939453125	-68.57953643798828	507.7076721191406	1560.962890625	-36.93804931640625	553.599609375	1560.92578125	-248.3549041748047	627.79248046875	883.4361572265625	-303.8790893554688	323.4268493652344	868.8492431640625	-148.4352874755859	407.9221801757812	895.0162353515625	-72.60507965087891	625.8312377929688	909.988037109375	-170.3831634521484	731.8926391601562	459.9471130371094	-126.4788131713867	714.4617309570312	584.3984375	-184.2897338867188	791.9136352539062	36.64018630981445	-51.3859748840332	773.230712890625	248.5110778808594	-95.47296905517578	812.2146606445312	110.4253768920898	147.2926025390625	747.9588012695312	80.12474060058594	108.2164154052734	849.1781005859375	70.54383087158203	55.84942245483398	716.8790283203125	24.76897621154785	-53.30961227416992	387.8204650878906	412.6942138671875	-207.88037109375	328.1901245117188	58.13765716552734	-418.6051330566406	399.7615051269531	295.6469421386719	-257.0449829101562	512.300537109375	36.98052215576172	-347.4360046386719	491.6622314453125	38.11873245239258	-413.4957580566406	396.5474548339844	38.07082366943359	-343.8282470703125	318.1710205078125	73.49571228027344	-485.2218322753906	420.6908569335938	997.458740234375	-299.5388793945312	370.3004150390625	655.9219970703125	-118.6824645996094	628.6220092773438	604.7245483398438	-356.8271484375	nan	nan	nan	nan	nan	nan	nan	nan	nan	
468	4.67	385.8236999511719	929.7013549804688	-262.1869812011719	516.73095703125	931.02978515625	-319.5771179199219	558.9810791015625	1170.552612304688	-88.51906585693359	417.7391967773438	1113.40380859375	-293.57421875	459.5201110839844	1357.930908203125	-252.8827972412109	540.1109008789062	1297.234252929688	-122.9639053344727	369.7447814941406	1222.767700195312	-262.0063781738281	535.310302734375	1322.013427734375	-319.5655517578125	629.74560546875	1334.051391601562	-282.4818420410156	663.0126953125	1220.457153320312	-350.5068054199219	662.3365478515625	1017.936584472656	-380.2059631347656	578.3212890625	1015.754333496094	-393.5506286621094	663.6832885742188	759.30078125	-324.9629821777344	683.0480346679688	760.17333984375	-392.0985412597656	668.52099609375	914.1323852539062	-394.1749877929688	667.8152465820312	693.9019775390625	-406.476318359375	671.8012084960938	680.323974609375	-342.5839233398438	354.9467468261719	1346.11669921875	-117.9165573120117	293.2086791992188	1283.037475585938	-91.34797668457031	269.7885437011719	1018.822570800781	-36.87186813354492	297.3625793457031	1000.842590332031	-125.2586898803711	435.9452514648438	849.6878662109375	43.75772857666016	374.6832885742188	822.1795654296875	80.27822113037109	292.5286865234375	961.5675048828125	-1.626238822937012	494.3580017089844	696.3507690429688	99.45347595214844	479.3418273925781	769.388671875	98.05396270751953	413.48193359375	750.8524169921875	108.6419525146484	433.5086364746094	1566.188110351562	-172.4501953125	608.1752319335938	1557.457885742188	-60.66676330566406	511.8108520507812	1560.361328125	-30.31570816040039	560.7295532226562	1560.40380859375	-241.1102752685547	635.55419921875	882.5081176757812	-294.3071594238281	329.1540222167969	868.1326904296875	-143.1510620117188	412.6393127441406	894.0340576171875	-65.96281433105469	631.6734008789062	909.5621948242188	-160.9918060302734	735.6107177734375	459.7597045898438	-112.7614212036133	719.4546508789062	584.2503662109375	-171.5736083984375	790.9908447265625	36.07719421386719	-46.63956451416016	774.0081787109375	246.9845428466797	-84.42605590820312	803.442138671875	100.6619338989258	155.4267883300781	741.0614624023438	71.47742462158203	112.766960144043	843.7906494140625	65.31546783447266	63.812744140625	716.309326171875	23.86578941345215	-51.71802139282227	390.8228759765625	412.3506469726562	-203.3780364990234	328.7422790527344	60.18734359741211	-418.0271301269531	401.7438049316406	295.4678649902344	-253.4704742431641	512.301513671875	36.98823165893555	-346.9991149902344	491.8511352539062	38.7592658996582	-412.9097595214844	396.7302551269531	38.4466552734375	-343.367431640625	318.9900207519531	76.87318420410156	-484.464111328125	428.5194396972656	996.3273315429688	-292.8301391601562	374.432861328125	655.1401977539062	-113.3198318481445	640.3784790039062	603.6890258789062	-349.6954040527344	nan	nan	nan	nan	nan	nan	nan	nan	nan	
469	4.68	393.2408752441406	929.236572265625	-255.7086486816406	524.07080078125	930.6477661132812	-311.9456481933594	564.5305786132812	1170.190551757812	-80.74124145507812	425.5063781738281	1112.51904296875	-287.3473815917969	466.9488525390625	1357.126220703125	-246.6841583251953	545.9613037109375	1296.7841796875	-115.615104675293	377.3095397949219	1221.921630859375	-256.6361694335938	543.4471435546875	1321.014770507812	-312.4596862792969	637.4673461914062	1333.373779296875	-274.4425048828125	671.1743774414062	1219.547607421875	-341.8848266601562	671.3251342773438	1017.296264648438	-371.6944885253906	587.4343872070312	1014.394165039062	-384.5396728515625	674.5794067382812	758.549560546875	-316.3740234375	693.3176879882812	759.8106689453125	-383.7752075195312	677.9009399414062	913.3055419921875	-385.5133972167969	678.9380493164062	693.5444946289062	-398.2241516113281	683.6143188476562	679.637451171875	-334.2923583984375	360.6879577636719	1345.52392578125	-113.0248947143555	298.513427734375	1282.544311523438	-87.34939575195312	273.1165161132812	1018.245788574219	-34.84043502807617	302.1588134765625	1000.597595214844	-122.850700378418	433.5337219238281	843.5473022460938	47.15314483642578	370.7135009765625	817.3133544921875	81.81575012207031	294.2388000488281	959.8952026367188	0.3549782931804657	486.104248046875	687.757080078125	101.873046875	473.4541320800781	761.5492553710938	101.1238403320312	406.752197265625	744.5574340820312	110.0297546386719	439.5887451171875	1565.694091796875	-166.8935546875	612.6685180664062	1557.208374023438	-52.63902282714844	515.8560791015625	1559.969116210938	-23.64163970947266	567.8783569335938	1560.171752929688	-233.7270660400391	643.2822875976562	881.8837280273438	-284.47119140625	334.9644775390625	867.4478149414062	-137.5291595458984	417.3925476074219	893.1260375976562	-59.0443000793457	637.5366821289062	909.4039306640625	-151.3350372314453	739.10400390625	459.8238830566406	-99.23275756835938	724.0275268554688	584.2243041992188	-158.8789215087891	790.667724609375	35.93601989746094	-42.46540069580078	774.9647216796875	245.9232940673828	-73.68126678466797	794.3631591796875	90.70629119873047	162.8336181640625	734.1508178710938	62.89006042480469	116.3124771118164	838.465087890625	60.22109603881836	71.27891540527344	716.4000244140625	23.6236743927002	-50.87110900878906	394.0724487304688	412.0772094726562	-198.4841613769531	329.3608703613281	62.53162384033203	-417.2417297363281	403.8879089355469	295.416015625	-249.5784301757812	512.2766723632812	36.97852325439453	-346.5491638183594	492.022216796875	39.43066024780273	-412.2179565429688	396.9381713867188	38.73957824707031	-342.8249206542969	319.9068603515625	80.67886352539062	-483.4192199707031	436.3935852050781	995.3059692382812	-285.6957092285156	378.6715087890625	654.4540405273438	-107.6139526367188	652.4034423828125	602.86669921875	-342.1022644042969	nan	nan	nan	nan	nan	nan	nan	nan	nan	
470	4.69	400.6405029296875	928.9349975585938	-248.8629913330078	530.0203857421875	930.65673828125	-304.4191589355469	570.0364990234375	1170.101440429688	-72.83076477050781	433.3365173339844	1111.862060546875	-280.9753723144531	474.4552307128906	1356.552734375	-240.3883209228516	551.862060546875	1296.6298828125	-108.1530685424805	384.9996032714844	1221.281127929688	-251.1097412109375	551.62890625	1320.213012695312	-305.1737670898438	645.2705688476562	1332.930419921875	-266.2622680664062	679.427001953125	1218.81005859375	-333.0415344238281	680.376220703125	1016.828125	-362.933349609375	596.5438842773438	1013.204223632812	-375.2493591308594	685.5836791992188	758.0211181640625	-307.4016723632812	703.620849609375	759.630859375	-375.1103210449219	687.3313598632812	912.64990234375	-376.5811157226562	690.0188598632812	693.2545166015625	-389.4877319335938	695.5880126953125	679.2258911132812	-325.5899047851562	366.4742736816406	1345.20068359375	-108.0900802612305	303.8934020996094	1282.322021484375	-83.32718658447266	276.4773254394531	1017.954162597656	-32.96834564208984	307.1538391113281	1000.632019042969	-120.5009460449219	430.7369689941406	837.6822509765625	50.38809204101562	366.3006286621094	812.750244140625	82.91114807128906	295.8970336914062	958.5054321289062	2.117770195007324	477.2481079101562	679.5428466796875	103.8086166381836	467.0734558105469	754.1936645507812	103.7910003662109	399.5055236816406	738.6197509765625	110.9148330688477	445.7058410644531	1565.492309570312	-161.2842102050781	617.1004638671875	1557.2041015625	-44.48873519897461	519.8382568359375	1559.809814453125	-16.91977310180664	575.0387573242188	1560.241333007812	-226.1998138427734	650.9429931640625	881.6229858398438	-274.433837890625	340.8362731933594	866.8226928710938	-131.5603179931641	422.1881103515625	892.3284301757812	-51.86146545410156	643.3974609375	909.5270385742188	-141.4564208984375	742.4506225585938	460.2029113769531	-85.95820617675781	728.1924438476562	584.3272705078125	-146.2694854736328	790.9888916015625	36.11920928955078	-38.6803092956543	776.2919921875	245.3993682861328	-63.2055778503418	785.6739501953125	80.94657897949219	169.4553985595703	727.7352294921875	54.78237533569336	119.0619888305664	833.6040649414062	55.36871337890625	78.17550659179688	717.1735229492188	24.0190486907959	-50.3913459777832	397.5903015136719	411.9007263183594	-193.1569366455078	330.0887145996094	65.2021484375	-416.2306518554688	406.1763916015625	295.5295715332031	-245.3113098144531	512.2440795898438	36.96163177490234	-346.1020202636719	492.2214050292969	40.16862869262695	-411.4170227050781	397.1798706054688	38.93360900878906	-342.2005004882812	320.9901428222656	84.96694946289062	-482.0505065917969	444.2688598632812	994.4281005859375	-278.1427612304688	383.0306701660156	653.8970336914062	-101.5438613891602	664.6608276367188	602.272705078125	-333.9827880859375	nan	nan	nan	nan	nan	nan	nan	nan	nan	
